<?xml version="1.0" encoding="UTF-8"?>
<!DOCTYPE svg PUBLIC "-//W3C//DTD SVG 1.1//EN" "http://www.w3.org/Graphics/SVG/1.1/DTD/svg11.dtd">
<!-- Creator: CorelDRAW 2019 (64 Bit) -->
<svg xmlns="http://www.w3.org/2000/svg" xml:space="preserve" width="1012px" height="398px" version="1.1" style="shape-rendering:geometricPrecision; text-rendering:geometricPrecision; image-rendering:optimizeQuality; fill-rule:evenodd; clip-rule:evenodd"
viewBox="0 0 101200 39791"
 xmlns:xlink="http://www.w3.org/1999/xlink">
 <defs>
  <style type="text/css">
   <![CDATA[
    .fil0 {fill:#FEFEFE}
   ]]>
  </style>
 </defs>
 <g id="Camada_x0020_1">
  <metadata id="CorelCorpID_0Corel-Layer"/>
  <path class="fil0" d="M27139 14326l959 0 0 15659 4514 0 0 959 -4514 0 -439 0 -520 0 0 -16618zm-19167 10044l-7765 13173c-272,461 -276,992 -10,1457 265,464 725,731 1260,731l9502 0 9503 0c535,0 995,-267 1260,-731 266,-465 262,-996 -10,-1457l-7765 -13173c-17,-29 -25,-58 -25,-92l0 -8341c0,-42 12,-78 38,-112l720 -918c88,-111 103,-254 41,-382 -62,-127 -184,-203 -326,-203l-6871 0c-142,0 -264,76 -326,203 -62,128 -47,270 41,382l720 918c26,34 38,70 38,112l0 8341c0,34 -8,63 -25,92zm1309 -19567c188,1086 1222,1815 2308,1628 1087,-189 1816,-1222 1628,-2309 -188,-1087 -1222,-1815 -2309,-1628 -1087,189 -1815,1222 -1627,2309zm-1136 -3743c84,493 553,822 1046,738 493,-86 822,-554 737,-1047 -85,-492 -553,-822 -1046,-738 -493,86 -823,554 -737,1047zm905 8220c122,707 795,1181 1501,1058 707,-122 1180,-794 1058,-1500 -122,-707 -794,-1181 -1501,-1059 -707,123 -1180,795 -1058,1501zm2797 2822c0,-400 -324,-725 -726,-725 -400,0 -726,325 -726,725 0,401 326,727 726,727 402,0 726,-326 726,-727zm-5932 17895l-4773 8097c-74,125 -75,241 -3,367 72,126 172,184 318,184l19005 0c146,0 245,-58 318,-184 72,-126 71,-242 -3,-367l-4797 -8137c-1141,315 -2337,449 -3358,449 -3838,0 -4285,-1434 -6707,-409zm8109 -15132l-6129 0 491 626c101,128 154,283 154,446l0 8341c0,131 -34,255 -101,368l-7765 13173c-173,293 -175,616 -6,911 169,296 449,458 789,458l19005 0c340,0 620,-162 789,-458 169,-295 166,-618 -6,-911l-7766 -13173c-66,-113 -100,-237 -100,-368l0 -8341c0,-163 53,-318 154,-446l491 -626zm14920 23572l301 1294 481 0 -1017 -4085 -583 0 -987 4085 446 0 300 -1294 1059 0zm-974 -403c204,-878 366,-1612 427,-1967l12 0c54,325 210,962 445,1967l-884 0zm5470 1697l0 -1594c0,-734 -6,-1402 -36,-1914l6 0c48,163 192,536 1365,3508l530 0 0 -4085 -421 0 0 1558c0,668 6,1281 36,1829l-6 0c-54,-175 -211,-560 -1342,-3387l-553 0 0 4085 421 0zm6986 -1294l301 1294 481 0 -1016 -4085 -584 0 -987 4085 446 0 300 -1294 1059 0zm-974 -403c204,-878 367,-1612 427,-1967l12 0c54,325 210,962 445,1967l-884 0zm866 -3417l-680 716 457 0 782 -716 -559 0zm4183 5114l1847 0 60 -397 -1456 0 0 -3688 -451 0 0 4085zm5181 -4085l0 4085 452 0 0 -4085 -452 0zm3870 3014c31,589 301,1125 1119,1125 753,0 1113,-469 1113,-1113 0,-608 -258,-951 -974,-1294 -511,-240 -686,-427 -686,-818 0,-325 168,-595 560,-595 505,0 565,475 589,667l439 0c-12,-475 -222,-1040 -1011,-1040 -667,0 -1028,445 -1028,1010 0,590 283,873 920,1179 560,265 734,500 734,927 0,469 -216,704 -643,704 -452,0 -650,-337 -686,-752l-446 0zm7480 -1288l-1365 0 0 -1329 1431 0 0 -397 -1877 0 0 4085 1901 0 61 -397 -1516 0 0 -1565 1365 0 0 -397zm6676 2359l451 0 0 -3688 909 0 0 -397 -2268 0 0 397 908 0 0 3688zm6463 -2359l-1365 0 0 -1329 1431 0 0 -397 -1877 0 0 4085 1901 0 61 -397 -1516 0 0 -1565 1365 0 0 -397zm-493 -2743l-680 716 457 0 782 -716 -559 0zm5705 3971c-18,204 -96,794 -644,794 -619,0 -716,-873 -716,-1733 0,-794 102,-1672 746,-1672 572,0 596,631 608,770l451 0c-12,-253 -66,-1173 -1053,-1173 -902,0 -1221,884 -1221,2075 0,981 84,2130 1173,2130 993,0 1095,-957 1113,-1191l-457 0zm4303 1131l0 -1594c0,-734 -6,-1402 -36,-1914l6 0c48,163 193,536 1366,3508l529 0 0 -4085 -421 0 0 1558c0,668 6,1281 36,1829l-6 0c-54,-175 -210,-560 -1341,-3387l-554 0 0 4085 421 0zm5525 -4085l0 4085 451 0 0 -4085 -451 0zm5789 2954c-18,204 -96,794 -644,794 -620,0 -716,-873 -716,-1733 0,-794 103,-1672 746,-1672 572,0 596,631 608,770l451 0c-12,-253 -66,-1173 -1053,-1173 -902,0 -1221,884 -1221,2075 0,981 84,2130 1173,2130 993,0 1095,-957 1113,-1191l-457 0zm5410 -163l301 1294 481 0 -1017 -4085 -583 0 -987 4085 446 0 300 -1294 1059 0zm-974 -403c204,-878 366,-1612 427,-1967l12 0c54,325 210,962 445,1967l-884 0zm1764 -19374l0 -1937c0,-1318 -1078,-2397 -2397,-2397l-99 0 -561 0c-1318,0 -2397,1079 -2397,2397l0 989 0 948 0 7949 0 949 0 989c0,1318 1079,2397 2397,2397l561 0 99 0c1319,0 2397,-1079 2397,-2397l0 -1938 -959 0 0 1938c0,789 -649,1438 -1438,1438l-99 0 -561 0c-789,0 -1438,-649 -1438,-1438l0 -989 0 -949 0 -7949 0 -948 0 -989c0,-789 649,-1438 1438,-1438l561 0 99 0c789,0 1438,649 1438,1438l0 1937 959 0zm-16858 -4334l479 0 479 0 4474 0 0 959 -4474 0 0 6621 3931 0 0 959 -3931 0 0 7120 4474 0 0 959 -4474 0 -479 0 -479 0 0 -16618zm-8709 0l959 0 0 0 2077 0 0 959 -2077 0 0 15659 -959 0 0 -15659 -1917 0 0 -959 1917 0 0 0zm-7853 4334l0 -948 0 -989c0,-1318 -1079,-2397 -2397,-2397l-100 0 -560 0c-1318,0 -2397,1079 -2397,2397l0 989 0 948 0 7949 0 949 0 989c0,1318 1079,2397 2397,2397l560 0 100 0c1318,0 2397,-1079 2397,-2397l0 -989 0 -949 0 -7949zm-959 7949l0 949 0 989c0,789 -649,1438 -1438,1438l-100 0 -560 0c-789,0 -1438,-649 -1438,-1438l0 -989 0 -949 0 -7949 0 -948 0 -989c0,-789 649,-1438 1438,-1438l560 0 100 0c789,0 1438,649 1438,1438l0 989 0 948 0 7949zm-16034 -12283l959 0 1613 0c1538,0 2796,1258 2796,2796l0 3316c0,842 -440,1586 -1101,2014 668,512 1101,1318 1101,2220l0 3875c0,1318 -1078,2397 -2396,2397l-2013 0 -959 0 0 -8109 0 -959 0 -7550zm2572 8509l-1613 0 0 7150 2013 0c789,0 1438,-649 1438,-1438l0 -3875c0,-1008 -829,-1837 -1838,-1837zm-1613 -7550l0 6591 1613 0 400 0c789,0 1438,-649 1438,-1438l0 -3316c0,-1008 -829,-1837 -1838,-1837l-1613 0zm-10758 -959l959 0 2704 16618 -958 0 -897 -5513 -2656 0 -897 5513 -959 0 2704 -16618zm1652 10146l-1172 -7200 -1172 7200 2344 0z"/>
 </g>
</svg>
